<svg width="28" height="29" viewBox="0 0 28 29" fill="none" xmlns="http://www.w3.org/2000/svg">
<path d="M23.2223 20.498C22.0457 20.498 20.993 20.9347 20.188 21.619L9.1496 15.5773C9.22701 15.2425 9.28893 14.9076 9.28893 14.5582C9.28893 14.2088 9.22701 13.874 9.1496 13.5392L20.0641 7.55572C20.9001 8.28364 21.9993 8.73494 23.2223 8.73494C25.7923 8.73494 27.8668 6.78414 27.8668 4.36747C27.8668 1.9508 25.7923 0 23.2223 0C20.6524 0 18.5779 1.9508 18.5779 4.36747C18.5779 4.71687 18.6398 5.05171 18.7172 5.38655L7.80271 11.37C6.9667 10.6421 5.86751 10.1908 4.64447 10.1908C2.07453 10.1908 0 12.1416 0 14.5582C0 16.9749 2.07453 18.9257 4.64447 18.9257C5.86751 18.9257 6.9667 18.4744 7.80271 17.7465L18.8256 23.8027C18.7482 24.1084 18.7017 24.4287 18.7017 24.749C18.7017 27.0929 20.7298 29 23.2223 29C25.7149 29 27.743 27.0929 27.743 24.749C27.743 22.4051 25.7149 20.498 23.2223 20.498ZM23.2223 2.91165C24.0738 2.91165 24.7705 3.56677 24.7705 4.36747C24.7705 5.16817 24.0738 5.82329 23.2223 5.82329C22.3709 5.82329 21.6742 5.16817 21.6742 4.36747C21.6742 3.56677 22.3709 2.91165 23.2223 2.91165ZM4.64447 16.0141C3.79298 16.0141 3.09631 15.3589 3.09631 14.5582C3.09631 13.7575 3.79298 13.1024 4.64447 13.1024C5.49595 13.1024 6.19262 13.7575 6.19262 14.5582C6.19262 15.3589 5.49595 16.0141 4.64447 16.0141ZM23.2223 26.2339C22.3709 26.2339 21.6742 25.5788 21.6742 24.7781C21.6742 23.9774 22.3709 23.3223 23.2223 23.3223C24.0738 23.3223 24.7705 23.9774 24.7705 24.7781C24.7705 25.5788 24.0738 26.2339 23.2223 26.2339Z" fill="white"/>
</svg>
